<mxfile host="app.diagrams.net" modified="2020-04-26T06:19:18.969Z" agent="5.0 (Windows NT 10.0; Win64; x64) AppleWebKit/537.36 (KHTML, like Gecko) Chrome/81.0.4044.122 Safari/537.36" etag="_SMaH2iXY5zndPfBVUYg" version="13.0.1" type="github">
  <diagram id="F4trczuJSJRY2X2oxDrN" name="Page-1">
    <mxGraphModel dx="1422" dy="723" grid="1" gridSize="10" guides="1" tooltips="1" connect="1" arrows="1" fold="1" page="1" pageScale="1" pageWidth="827" pageHeight="1169" math="0" shadow="0">
      <root>
        <mxCell id="0" />
        <mxCell id="1" parent="0" />
        <mxCell id="DydGGnFZWyeQnRzVfsYB-5" value="" style="edgeStyle=orthogonalEdgeStyle;rounded=0;orthogonalLoop=1;jettySize=auto;html=1;fontSize=14;entryX=0.5;entryY=0;entryDx=0;entryDy=0;fillColor=#e1d5e7;strokeColor=#9673a6;" edge="1" parent="1" source="DydGGnFZWyeQnRzVfsYB-1" target="DydGGnFZWyeQnRzVfsYB-10">
          <mxGeometry relative="1" as="geometry">
            <mxPoint x="530" y="100" as="targetPoint" />
          </mxGeometry>
        </mxCell>
        <mxCell id="DydGGnFZWyeQnRzVfsYB-8" value="" style="edgeStyle=orthogonalEdgeStyle;rounded=0;orthogonalLoop=1;jettySize=auto;html=1;fontSize=14;fillColor=#e1d5e7;strokeColor=#9673a6;" edge="1" parent="1" source="DydGGnFZWyeQnRzVfsYB-1">
          <mxGeometry relative="1" as="geometry">
            <mxPoint x="390" y="210" as="targetPoint" />
          </mxGeometry>
        </mxCell>
        <mxCell id="DydGGnFZWyeQnRzVfsYB-12" value="" style="edgeStyle=orthogonalEdgeStyle;rounded=0;orthogonalLoop=1;jettySize=auto;html=1;fontSize=14;entryX=0.5;entryY=0;entryDx=0;entryDy=0;fillColor=#e1d5e7;strokeColor=#9673a6;" edge="1" parent="1" source="DydGGnFZWyeQnRzVfsYB-1" target="DydGGnFZWyeQnRzVfsYB-6">
          <mxGeometry relative="1" as="geometry">
            <mxPoint x="250" y="100" as="targetPoint" />
          </mxGeometry>
        </mxCell>
        <mxCell id="DydGGnFZWyeQnRzVfsYB-1" value="常驻脚本" style="rounded=0;whiteSpace=wrap;html=1;fontSize=14;fillColor=#e1d5e7;strokeColor=#9673a6;" vertex="1" parent="1">
          <mxGeometry x="330" y="70" width="120" height="60" as="geometry" />
        </mxCell>
        <mxCell id="DydGGnFZWyeQnRzVfsYB-6" value="前台归一化检查脚本&lt;br&gt;markcmd mark&lt;br&gt;normalize check" style="shape=document;whiteSpace=wrap;html=1;boundedLbl=1;fontSize=14;fillColor=#e1d5e7;strokeColor=#9673a6;" vertex="1" parent="1">
          <mxGeometry x="110" y="210" width="140" height="80" as="geometry" />
        </mxCell>
        <mxCell id="DydGGnFZWyeQnRzVfsYB-9" value="后台归一化检查脚本&lt;br&gt;markcmd mark normalize normalizeCheckService" style="shape=document;whiteSpace=wrap;html=1;boundedLbl=1;fontSize=14;fillColor=#e1d5e7;strokeColor=#9673a6;" vertex="1" parent="1">
          <mxGeometry x="295" y="210" width="190" height="80" as="geometry" />
        </mxCell>
        <mxCell id="DydGGnFZWyeQnRzVfsYB-10" value="后台归一化脚本&lt;br&gt;markcmd mark normalize normalizeService" style="shape=document;whiteSpace=wrap;html=1;boundedLbl=1;fontSize=14;fillColor=#e1d5e7;strokeColor=#9673a6;" vertex="1" parent="1">
          <mxGeometry x="530" y="210" width="170" height="80" as="geometry" />
        </mxCell>
      </root>
    </mxGraphModel>
  </diagram>
</mxfile>
